<svg xmlns="http://www.w3.org/2000/svg" width="44.287" height="44.287" viewBox="0 0 44.287 44.287">
  <path id="noun-hours-2303152" d="M92.143,40.548a18.4,18.4,0,1,1,18.4-18.4,18.4,18.4,0,0,1-18.4,18.4M92.143,0A22.143,22.143,0,1,1,70,22.146,22.146,22.146,0,0,1,92.143,0Zm0,7.485a1.871,1.871,0,0,0-1.871,1.874V22.126a1.87,1.87,0,0,0,.546,1.344l9.042,9.039a1.867,1.867,0,0,0,2.644,0,1.871,1.871,0,0,0,0-2.644l-8.49-8.49V9.358a1.871,1.871,0,0,0-1.871-1.874Z" transform="translate(-70)" fill="#c5a47e" fill-rule="evenodd"/>
</svg>
