<svg xmlns="http://www.w3.org/2000/svg" width="34.664" height="52.145" viewBox="0 0 34.664 52.145">
  <g id="noun-phone-3763005" transform="translate(-165.938 0.75)">
    <path id="Path_2262" data-name="Path 2262" d="M194.115,0h-21.7a5.733,5.733,0,0,0-5.729,5.729V44.915a5.733,5.733,0,0,0,5.729,5.729h21.706a5.733,5.733,0,0,0,5.729-5.729V5.729A5.74,5.74,0,0,0,194.115,0Zm3.925,44.915a3.921,3.921,0,0,1-3.917,3.917H172.417a3.921,3.921,0,0,1-3.917-3.917V5.729a3.921,3.921,0,0,1,3.917-3.917h21.706a3.921,3.921,0,0,1,3.917,3.917Z" transform="translate(0 0)" fill="#c5a47e" stroke="#c5a47e" stroke-width="1.5"/>
    <path id="Path_2263" data-name="Path 2263" d="M280.858,53.375H267.6a.9.9,0,1,0,0,1.8h13.262a.9.9,0,1,0,0-1.8Z" transform="translate(-90.961 -48.548)" fill="#c5a47e" stroke="#c5a47e" stroke-width="1.5"/>
    <path id="Path_2264" data-name="Path 2264" d="M319.3,443.36h-.016a2.706,2.706,0,1,0,.016,0Zm-.008,3.616a1.012,1.012,0,0,1-.649-.269.9.9,0,0,1,0-1.282.864.864,0,0,1,.641-.261.9.9,0,0,1,.9.9.892.892,0,0,1-.894.91Z" transform="translate(-136.329 -403.264)" fill="#c5a47e" stroke="#c5a47e" stroke-width="1.5"/>
  </g>
</svg>
