<svg xmlns="http://www.w3.org/2000/svg" width="32.547" height="53.46" viewBox="0 0 32.547 53.46">
  <g id="noun-location-5673268" transform="translate(-118.585 -6.957)">
    <path id="Path_2260" data-name="Path 2260" d="M198.61,53.841c-.953-1.649-2.276-3.7-3.713-5.926-4.915-7.621-11.134-17.26-11.134-24.684a16.219,16.219,0,0,1,4.766-11.5l.007-.007a16.258,16.258,0,0,1,23,0l.007.007a16.219,16.219,0,0,1,4.766,11.5c0,7.425-6.219,17.064-11.134,24.684-1.44,2.231-2.767,4.288-3.72,5.94a1.638,1.638,0,0,1-2.236.6,1.621,1.621,0,0,1-.611-.617Zm9.637-1.522a1.642,1.642,0,0,1,1.131-3.083,10.348,10.348,0,0,1,3.3,1.84,4.033,4.033,0,0,1,1.529,3.031c0,2.045-1.812,3.743-4.742,4.834a30.861,30.861,0,0,1-18.858,0c-2.929-1.091-4.742-2.789-4.742-4.834a4.029,4.029,0,0,1,1.523-3.032l.109-.089a10.6,10.6,0,0,1,3.2-1.751,1.64,1.64,0,0,1,1.118,3.083,7.45,7.45,0,0,0-2.178,1.146l-.068.064c-.269.239-.418.438-.418.577,0,.53.993,1.166,2.6,1.763a27.936,27.936,0,0,0,16.571,0c1.6-.6,2.6-1.233,2.6-1.763,0-.144-.147-.343-.411-.577a7.229,7.229,0,0,0-2.26-1.211Zm-8.21-36.658a7.544,7.544,0,0,1,5.344,2.217l.007.007a7.563,7.563,0,1,1-10.7,10.7l-.007-.007a7.565,7.565,0,0,1,5.352-12.913Zm3.025,4.536a4.279,4.279,0,1,0,.007.007Zm-5.4,25.943c.841,1.3,1.642,2.545,2.378,3.726.736-1.181,1.537-2.423,2.378-3.726C207.1,38.882,213.023,29.7,213.023,23.23a12.984,12.984,0,1,0-25.969,0c0,6.468,5.925,15.653,10.607,22.911Z" transform="translate(-65.179)" fill="#c5a47e"/>
  </g>
</svg>
