
<svg xmlns="http://www.w3.org/2000/svg" width="239.25" height="17.985" viewBox="0 0 239.25 17.985">
  <g id="Group_243" data-name="Group 243" transform="translate(-838 -3062.015)">
    <text id="Download_entire_list" data-name="Download entire list" transform="translate(1055 3076)" fill="#c5a47e" font-size="16" font-family="Gilroy-Bold, Gilroy" font-weight="700" letter-spacing="0.12em"><tspan x="-216" y="0">DOWNLOAD ENTIRE LIST</tspan></text>
    <g id="Group_242" data-name="Group 242" transform="translate(-3)">
      <path id="arrow_right_copy" data-name="arrow right copy" d="M1501.7,681.044h10.887l-3.7,3.555a.653.653,0,0,0,0,.95.718.718,0,0,0,.988,0l4.89-4.7a.653.653,0,0,0,0-.95l-4.89-4.7a.718.718,0,0,0-.988,0,.653.653,0,0,0,0,.95l3.7,3.555H1501.7a.672.672,0,1,0,0,1.343Z" transform="translate(1754.746 1561.01) rotate(90)" fill="#c5a47e"/>
      <line id="Line_183" data-name="Line 183" x2="11" transform="translate(1068.5 3078.5)" fill="none" stroke="#c5a47e" stroke-linecap="round" stroke-width="1.5"/>
    </g>
  </g>
</svg>
