
<svg xmlns="http://www.w3.org/2000/svg" width="177.247" height="24.712" viewBox="0 0 177.247 24.712">
  <g id="Group_174" data-name="Group 174" transform="translate(-1453 -793.288)">
    <text id="Add_a_Filter" data-name="Add a Filter" transform="translate(1578 813)" fill="#a580e9" font-size="24" font-family="Gilroy-Regular, Gilroy"><tspan x="-124" y="0">Add a Filter</tspan></text>
    <g id="noun-filter-463186" transform="translate(1429.331 642.089)">
      <path id="Path_2265" data-name="Path 2265" d="M180.216,155.04a5.088,5.088,0,1,0,0,2.494h20.7V155.04Zm-4.888,3.841a2.608,2.608,0,0,1-2.594-2.594,2.576,2.576,0,0,1,2.594-2.594,2.594,2.594,0,0,1,0,5.188Z" fill="#a580e9"/>
      <path id="Path_2266" data-name="Path 2266" d="M200.025,290.08a5.075,5.075,0,0,0-4.888,3.841h-9.776v2.494h9.726a5.031,5.031,0,0,0,9.776,0h9.726v-2.494h-9.677A5.075,5.075,0,0,0,200.025,290.08Zm0,7.682a2.608,2.608,0,0,1-2.594-2.594,2.594,2.594,0,1,1,5.188,0A2.608,2.608,0,0,1,200.025,297.762Z" transform="translate(-13.774 -126.511)" fill="#a580e9"/>
    </g>
  </g>
</svg>