<svg xmlns="http://www.w3.org/2000/svg" width="88.849" height="68.369" viewBox="0 0 88.849 68.369">
  <g id="Group_187" data-name="Group 187" transform="translate(-4421.793 -2001.077)">
    <path id="Path_567" data-name="Path 567" d="M4538.666,2102.263V2131.4a4.546,4.546,0,0,0,4.545,4.546h49.967a4.546,4.546,0,0,0,4.546-4.546v-35.448a4.546,4.546,0,0,0-4.546-4.546h-37.9" transform="translate(-89.082 -68.495)" fill="none" stroke="#c5a47e" stroke-linecap="round" stroke-linejoin="round" stroke-width="4"/>
    <line id="Line_147" data-name="Line 147" x2="4.743" transform="translate(4458.7 2056.893)" fill="none" stroke="#c5a47e" stroke-linecap="round" stroke-linejoin="round" stroke-width="4"/>
    <line id="Line_148" data-name="Line 148" x2="4.743" transform="translate(4470.408 2056.893)" fill="none" stroke="#c5a47e" stroke-linecap="round" stroke-linejoin="round" stroke-width="4"/>
    <line id="Line_149" data-name="Line 149" x2="4.743" transform="translate(4482.595 2056.893)" fill="none" stroke="#c5a47e" stroke-linecap="round" stroke-linejoin="round" stroke-width="4"/>
    <line id="Line_150" data-name="Line 150" x2="4.743" transform="translate(4494.783 2056.893)" fill="none" stroke="#c5a47e" stroke-linecap="round" stroke-linejoin="round" stroke-width="4"/>
    <rect id="Rectangle_26" data-name="Rectangle 26" width="13.912" height="10.366" rx="5.183" transform="translate(4484.176 2033.604)" fill="none" stroke="#c5a47e" stroke-linecap="round" stroke-linejoin="round" stroke-width="4"/>
    <path id="Path_568" data-name="Path 568" d="M4423.793,2045.935h2.789a3.483,3.483,0,0,0,3.486-3.479l.03-37.007a2.369,2.369,0,0,0-2.366-2.371h-3.938" fill="none" stroke="#c5a47e" stroke-linecap="round" stroke-linejoin="round" stroke-width="4"/>
    <path id="Path_569" data-name="Path 569" d="M4525.214,2035.175l-14.165-12.981c-3.156-2.6-4.075-3.144-8.457-3.283l-22.753-.014" transform="translate(-43.464 -12.267)" fill="none" stroke="#c5a47e" stroke-linecap="round" stroke-linejoin="round" stroke-width="4"/>
    <path id="Path_570" data-name="Path 570" d="M4500.479,2074.794l14.631,13.4a4.937,4.937,0,0,1,.234,6.561c-1.6,1.807-4.754,2.363-7.5.249l-10.048-7.29s-4.56,3.279-9.1,1.533a7.5,7.5,0,0,1-5.168-6.932" transform="translate(-46.323 -55.615)" fill="none" stroke="#c5a47e" stroke-linecap="round" stroke-linejoin="round" stroke-width="4"/>
    <path id="Path_571" data-name="Path 571" d="M4451.875,2173.817h1a9.607,9.607,0,0,1,6,2.123c2.785,2.228,7.309,5.411,12.184,5.411" transform="translate(-21.777 -132.406)" fill="none" stroke="#c5a47e" stroke-linecap="round" stroke-linejoin="round" stroke-width="4"/>
  </g>
</svg>