
<svg xmlns="http://www.w3.org/2000/svg" width="68.934" height="77.016" viewBox="0 0 68.934 77.016">
  <g id="Group_146" data-name="Group 146" transform="translate(-7573.891 -778.273)">
    <path id="Path_445" data-name="Path 445" d="M7652.826,979.1l-1.741,33.009h-53.372l-1.741-33.009" transform="translate(-16.041 -158.825)" fill="none" stroke="#c5a47e" stroke-linecap="round" stroke-linejoin="round" stroke-width="4"/>
    <path id="Path_446" data-name="Path 446" d="M7765.372,891.849h21.054a2.183,2.183,0,0,0,2.183-2.183V877.225a2.183,2.183,0,0,0-2.183-2.183H7760.9" transform="translate(-147.785 -75.7)" fill="none" stroke="#c5a47e" stroke-linecap="round" stroke-linejoin="round" stroke-width="4"/>
    <path id="Path_447" data-name="Path 447" d="M7599.128,891.849h-21.054c-1.206,0-2.183-1.9-2.183-3.1V876.3c0-1.206.978-1.261,2.183-1.261H7603.6" transform="translate(0 -75.7)" fill="none" stroke="#c5a47e" stroke-linecap="round" stroke-linejoin="round" stroke-width="4"/>
    <path id="Path_448" data-name="Path 448" d="M7748.261,800.669a25.815,25.815,0,0,0,5.727-2.415c2.863-1.759,4.83-5.488,2.09-8.822-2.635-3.208-8.164-2.127-11.77.975a23.494,23.494,0,0,0-7.037,10.263" transform="translate(-128.91 -5.765)" fill="none" stroke="#c5a47e" stroke-linecap="round" stroke-linejoin="round" stroke-width="4"/>
    <path id="Path_449" data-name="Path 449" d="M7642.565,794.9a17.4,17.4,0,0,1-4.78-2.382c-2.812-2.089-4.824-6.066-2.4-9.614,2.661-3.891,9.217-3.162,13.268.17a18.8,18.8,0,0,1,6.365,11.826" transform="translate(-46.658)" fill="none" stroke="#c5a47e" stroke-linecap="round" stroke-linejoin="round" stroke-width="4"/>
    <path id="Path_450" data-name="Path 450" d="M7713.606,924.691V875.042h9.516v49.649" transform="translate(-110.006 -75.7)" fill="none" stroke="#c5a47e" stroke-linecap="round" stroke-linejoin="round" stroke-width="4"/>
  </g>
</svg>