<svg xmlns="http://www.w3.org/2000/svg" width="83.364" height="84.403" viewBox="0 0 83.364 84.403">
  <g id="Group_36" data-name="Group 36" transform="translate(-2343.592 -222.156)">
    <path id="Path_121" data-name="Path 121" d="M2345.916,224.48,2356,226.3a6.544,6.544,0,0,1,5.219,4.992l10.112,44.566a5.085,5.085,0,0,0,4.959,3.96H2415.7" transform="translate(0 0)" fill="none" stroke="#c5a47e" stroke-linecap="round" stroke-linejoin="round" stroke-width="4"/>
    <circle id="Ellipse_8" data-name="Ellipse 8" cx="7.286" cy="7.286" r="7.286" transform="translate(2399.344 289.913) rotate(-25.056)" fill="none" stroke="#c5a47e" stroke-linecap="round" stroke-linejoin="round" stroke-width="4"/>
    <circle id="Ellipse_9" data-name="Ellipse 9" cx="7.286" cy="7.286" r="7.286" transform="translate(2367.634 293.427) rotate(-45)" fill="none" stroke="#c5a47e" stroke-linecap="round" stroke-linejoin="round" stroke-width="4"/>
    <path id="Path_122" data-name="Path 122" d="M2445.91,303.677h45.4a2.558,2.558,0,0,0,2.5-2l6.592-29.258a1.744,1.744,0,0,0-1.7-2.128H2443.92" transform="translate(-75.498 -35.293)" fill="none" stroke="#c5a47e" stroke-linecap="round" stroke-linejoin="round" stroke-width="4"/>
    <line id="Line_32" data-name="Line 32" x1="3.016" y2="18.574" transform="translate(2408.958 243.163)" fill="none" stroke="#c5a47e" stroke-linecap="round" stroke-linejoin="round" stroke-width="4"/>
    <line id="Line_33" data-name="Line 33" x2="2.596" y2="18.574" transform="translate(2376.164 243.163)" fill="none" stroke="#c5a47e" stroke-linecap="round" stroke-linejoin="round" stroke-width="4"/>
    <line id="Line_34" data-name="Line 34" y1="18.574" x2="1.262" transform="translate(2398.752 243.163)" fill="none" stroke="#c5a47e" stroke-linecap="round" stroke-linejoin="round" stroke-width="4"/>
    <line id="Line_35" data-name="Line 35" x1="0.842" y1="18.574" transform="translate(2387.914 243.163)" fill="none" stroke="#c5a47e" stroke-linecap="round" stroke-linejoin="round" stroke-width="4"/>
    <path id="Path_123" data-name="Path 123" d="M2619.5,522.945a.527.527,0,1,1-.527-.527A.527.527,0,0,1,2619.5,522.945Z" transform="translate(-209.947 -229.518)" fill="none" stroke="#c5a47e" stroke-linecap="round" stroke-linejoin="round" stroke-width="4"/>
    <path id="Path_124" data-name="Path 124" d="M2484.114,522.945a.527.527,0,1,1-.527-.527A.527.527,0,0,1,2484.114,522.945Z" transform="translate(-105.65 -229.518)" fill="none" stroke="#c5a47e" stroke-linecap="round" stroke-linejoin="round" stroke-width="4"/>
  </g>
</svg>