<svg xmlns="http://www.w3.org/2000/svg" width="59.917" height="67.831" viewBox="0 0 59.917 67.831">
  <g id="noun-baby-3380453" transform="translate(-80.27 -17.5)">
    <path id="Path_326" data-name="Path 326" d="M363.024,271.544a5.649,5.649,0,0,0-4.519,9.044h-2.264v-14.7a3.392,3.392,0,1,0-6.783,0v5.652h-4.522v-3.957a5.094,5.094,0,0,0-5.087-5.087h-2.826a3.392,3.392,0,1,0,0,6.783h1.131v2.455a3.4,3.4,0,0,0-2.261,3.2v3.109a4.774,4.774,0,0,0,.731,2.544h-2.992a1.131,1.131,0,0,0-1.131,1.131v4.522a1.13,1.13,0,0,0,1.131,1.131h33.915a1.13,1.13,0,0,0,1.13-1.131v-4.522a1.13,1.13,0,0,0-1.13-1.131h0a5.649,5.649,0,0,0-4.519-9.044Zm-11.305-5.652a1.131,1.131,0,1,1,2.261,0v5.652h-2.261Zm-6.783,7.914h9.044v6.783h-9.044Zm-7.914-6.783a1.131,1.131,0,1,1,0-2.261h2.826a2.829,2.829,0,0,1,2.826,2.826v3.957h-2.261v-3.392a1.13,1.13,0,0,0-1.13-1.13Zm1.13,7.914a1.131,1.131,0,0,1,1.131-1.13h3.391v6.783H340.7a2.547,2.547,0,0,1-2.544-2.544Zm28.263,10.175H334.762v-2.261h31.654Zm-3.392-4.522a3.4,3.4,0,1,1,2.4-.995,3.392,3.392,0,0,1-2.4.995Z" transform="translate(-228.49 -213.346)" fill="#c5a47e"/>
    <path id="Path_327" data-name="Path 327" d="M358.75,24.283a6.791,6.791,0,1,0,1.989-4.794A6.784,6.784,0,0,0,358.75,24.283Zm11.305,0a4.527,4.527,0,1,1-1.326-3.2A4.524,4.524,0,0,1,370.055,24.283Z" transform="translate(-251.348)" fill="#c5a47e"/>
    <path id="Path_328" data-name="Path 328" d="M162.315,157.573V142.311h4.522a1.13,1.13,0,0,0,1.131-1.131V126.244a1.69,1.69,0,0,1,.306-.973l5.35-7.642a3.962,3.962,0,0,0,2.913,3.731l7.594,2.071h0a3.312,3.312,0,0,0,1.746-6.389l-5.474-1.493v-1.42a9.125,9.125,0,0,0-15.576-6.452l-9.207,9.207a23.306,23.306,0,0,0-6.871,16.588v7.709a1.13,1.13,0,0,0,1.131,1.13H154.4v15.261a3.957,3.957,0,1,0,7.913,0Zm22.967-38.349a1.051,1.051,0,1,1-.554,2.027l-7.6-2.072a1.7,1.7,0,0,1-1.25-1.636v-.1h2.863ZM151.01,140.05v-6.579a21.058,21.058,0,0,1,6.209-14.989l9.207-9.207a6.863,6.863,0,0,1,11.716,4.853v1.05h-2.261v-1.131a1.13,1.13,0,0,0-2.057-.649l-7.4,10.575a3.938,3.938,0,0,0-.715,2.269v13.806Zm5.653,17.522V142.311h3.392v15.261a1.7,1.7,0,0,1-3.392,0Z" transform="translate(-68.479 -76.198)" fill="#c5a47e"/>
    <path id="Path_329" data-name="Path 329" d="M380.524,472.5H351.13A1.131,1.131,0,0,0,350,473.63v5.652a1.13,1.13,0,0,0,1.131,1.131h29.393a1.13,1.13,0,0,0,1.13-1.131V473.63a1.13,1.13,0,0,0-1.13-1.131Zm-26,5.653h-2.261v-3.392h2.261Zm20.349,0H356.783v-3.392h18.088Zm4.522,0h-2.261v-3.392h2.261Z" transform="translate(-243.729 -396.214)" fill="#c5a47e"/>
  </g>
</svg>
