<svg xmlns="http://www.w3.org/2000/svg" width="54.523" height="48.01" viewBox="0 0 54.523 48.01">
  <g id="noun-medical-1146357" transform="translate(-144.646 -99.178)">
    <path id="Path_334" data-name="Path 334" d="M190.991,107.185h-8.676v-2.8a5.2,5.2,0,0,0-5.2-5.2H166.7a5.2,5.2,0,0,0-5.2,5.2v2.8h-8.676a8.177,8.177,0,0,0-8.177,8.177v23.656a8.178,8.178,0,0,0,8.177,8.178h38.168a8.178,8.178,0,0,0,8.177-8.178V115.363a8.178,8.178,0,0,0-8.177-8.178Zm-25.031-2.8a.744.744,0,0,1,.744-.743h10.408a.744.744,0,0,1,.744.743v2.8h-11.9Zm28.748,34.629a3.717,3.717,0,0,1-3.717,3.717H152.823a3.717,3.717,0,0,1-3.717-3.717V115.363a3.717,3.717,0,0,1,3.717-3.717h38.168a3.717,3.717,0,0,1,3.717,3.717Z" transform="translate(0)" fill="#c5a47e"/>
    <path id="Path_335" data-name="Path 335" d="M299.394,250.787h-4.282V246.5a2.23,2.23,0,0,0-4.461,0v4.282H286.37a2.23,2.23,0,1,0,0,4.461h4.282v4.282h0a2.23,2.23,0,1,0,4.461,0v-4.282h4.282a2.23,2.23,0,1,0,0-4.461Z" transform="translate(-120.975 -125.835)" fill="#c5a47e"/>
  </g>
</svg>