<svg xmlns="http://www.w3.org/2000/svg" width="66.713" height="61.62" viewBox="0 0 66.713 61.62">
  <g id="noun-male-customer-4346642" transform="translate(-122.251 -69.75)">
    <path id="Path_2267" data-name="Path 2267" d="M187.441,123.48H142.874v-2.547h44.567a1.273,1.273,0,0,0,0-2.547h-1.273V96.74a1.273,1.273,0,0,0-1.273-1.273h-3.82V90.373a5.093,5.093,0,0,0-7.64-4.393,5.079,5.079,0,0,0-7.64,4.393v5.845l-1.273,1.273-1.643-1.655a1.281,1.281,0,0,0-2.177.9v21.647h-2.547v-8.328a8.915,8.915,0,0,0-6.367-8.531l-6.367-1.91V97.682a8.916,8.916,0,0,0,3.744-6.189,5.093,5.093,0,0,0,3.9-4.94V81.46A11.46,11.46,0,0,0,141.6,70h-2.547a11.46,11.46,0,0,0-11.46,11.46v5.093a5.093,5.093,0,0,0,3.9,4.94,8.915,8.915,0,0,0,3.744,6.189v1.936l-6.367,1.91h0a8.915,8.915,0,0,0-6.367,8.531v19.788a1.273,1.273,0,1,0,2.547,0v-8.913h3.82v8.913a1.273,1.273,0,0,0,2.547,0v-15.28a1.273,1.273,0,1,0-2.547,0v3.82h-3.82v-8.328a6.367,6.367,0,0,1,4.533-6.087l5.921-1.783a5.094,5.094,0,0,0,9.652,0l5.921,1.783a6.367,6.367,0,0,1,4.533,6.087v8.328h-3.82v-5.093a1.273,1.273,0,0,0-2.547,0v5.093H141.6a1.273,1.273,0,0,0-1.273,1.273v5.093a1.273,1.273,0,0,0,1.273,1.273h1.273v3.82a1.273,1.273,0,1,0,2.547,0v-3.82h42.02a1.273,1.273,0,1,0,0-2.547Zm-57.3-36.927V81.46a8.914,8.914,0,0,1,8.913-8.913H141.6a8.914,8.914,0,0,1,8.913,8.913v5.093a2.548,2.548,0,0,1-1.273,2.19v-6.01a1.273,1.273,0,0,0-1.273-1.273,2.025,2.025,0,0,1-2.012-1.388,2.445,2.445,0,0,0-1.693-1.362,2.723,2.723,0,0,0-2.254.547c-2.19,1.808-7.475,2.2-9.321,2.2a1.273,1.273,0,0,0-1.273,1.273v6.01a2.547,2.547,0,0,1-1.273-2.19Zm3.82,3.82V84.006c2.3-.14,7.131-.675,9.69-2.814a4.687,4.687,0,0,0,3.043,2.648v6.532a6.367,6.367,0,0,1-12.733,0Zm6.367,12.733a2.546,2.546,0,0,1-2.547-2.547V98.917a8.909,8.909,0,0,0,5.093,0v1.643a2.546,2.546,0,0,1-2.547,2.547Zm28.013,15.28V115.84h15.28v2.547Zm15.28-20.373v15.28h-15.28V98.013h2.547v1.273a1.273,1.273,0,1,0,2.547,0V98.013h5.093v1.273a1.273,1.273,0,1,0,2.547,0V98.013Zm-5.093-7.64v5.093h-5.093V90.373a2.547,2.547,0,1,1,5.093,0Zm-7.64-2.547a2.316,2.316,0,0,1,.662.1,4.976,4.976,0,0,0-.662,2.445v5.093h-2.547V90.373a2.546,2.546,0,0,1,2.547-2.547Zm-7.27,12.364a1.272,1.272,0,0,0,1.808,0l.369-.382v13.485h-2.547V99.808Zm-.369,15.65h2.547v2.547h-2.547Z" fill="#c5a47e" stroke="#c5a47e" stroke-width="0.5"/>
    <path id="Path_2268" data-name="Path 2268" d="M222.57,206.344a3.82,3.82,0,0,0,3.82-3.82,1.273,1.273,0,1,0-2.547,0,1.273,1.273,0,1,1-2.547,0,1.273,1.273,0,1,0-2.547,0,3.82,3.82,0,0,0,3.82,3.82Z" transform="translate(-82.242 -112.151)" fill="#c5a47e" stroke="#c5a47e" stroke-width="0.5"/>
  </g>
</svg>