<svg xmlns="http://www.w3.org/2000/svg" width="51.703" height="61.073" viewBox="0 0 51.703 61.073">
  <path id="noun-lost-and-found-544053" d="M88.672,13.261H88.65a1.176,1.176,0,0,0-1.091,1.252,1.116,1.116,0,1,0,1.113-1.252ZM106.23,50.425a1.327,1.327,0,0,0,0,1.752.98.98,0,0,0,1.543,0,1.327,1.327,0,0,0,0-1.752A1.012,1.012,0,0,0,106.23,50.425Zm25.008-25.406h-1.769l2.825-10.911a1.3,1.3,0,0,0-.639-1.512,1.048,1.048,0,0,0-1.388.568c-.425.906-2.241,1.843-4.537,1.843-2.523,0-4.407-1.322-4.407-2.5V5c0-2.761-1.976-5.006-4.407-5.006S112.509,2.234,112.509,5V6.247a1.111,1.111,0,1,0,2.2,0V5a2.221,2.221,0,1,1,4.406,0V12.5c0,1.181-1.884,2.5-4.407,2.5-2.3,0-4.111-.936-4.539-1.842a1.054,1.054,0,0,0-1.388-.568,1.3,1.3,0,0,0-.639,1.512l2.825,10.911h-3.684L100.235,7.208a3.5,3.5,0,0,0-1.842-1.97,2.926,2.926,0,0,0-2.527.088l-10.05,5.134a3.983,3.983,0,0,0-1.657,4.964l3.8,9.6H82.765a1.184,1.184,0,0,0-1.1,1.252V48.8c0,6.21,4.449,11.264,9.915,11.264h30.846c5.466,0,9.915-5.053,9.915-11.264V26.271a1.185,1.185,0,0,0-1.1-1.252Zm-9.915-8.765a7.915,7.915,0,0,0,4.406,1.256,9.788,9.788,0,0,0,3.563-.668l-2.117,8.177h-5.852Zm-6.61,1.256a7.913,7.913,0,0,0,4.407-1.257v8.766h-5.85l-2.117-8.177a9.759,9.759,0,0,0,3.561.668ZM86.169,14.4a1.325,1.325,0,0,1,.551-1.654L96.768,7.611a.974.974,0,0,1,.842-.03,1.166,1.166,0,0,1,.613.656l6.645,16.783h-14.5Zm43.967,34.4c0,4.831-3.459,8.761-7.712,8.761H91.578c-4.253,0-7.712-3.93-7.712-8.761V27.522h46.269ZM102.52,39.426a1.142,1.142,0,0,0,1.174-1.164,3.308,3.308,0,1,1,6.612.212c0,2.24-1.683,2.983-3.331,3.414l-.245.067a1.228,1.228,0,0,0-.826,1.209l0,3.129a1.111,1.111,0,1,0,2.2,0l0-2.155c2.924-.951,4.4-2.856,4.4-5.67a5.517,5.517,0,1,0-11.017-.38,1.209,1.209,0,0,0,1.024,1.334Z" transform="translate(-81.163 0.511)" fill="#c5a47e" stroke="#c5a47e" stroke-width="1"/>
</svg>
