<svg xmlns="http://www.w3.org/2000/svg" width="67.656" height="55.399" viewBox="0 0 67.656 55.399">
  <g id="noun-wifi-1113723" transform="translate(-98.006 -73.661)">
    <path id="Path_330" data-name="Path 330" d="M315.911,399.317a6.262,6.262,0,1,1-6.262-6.262,6.262,6.262,0,0,1,6.262,6.262" transform="translate(-177.81 -276.518)" fill="#c5a47e"/>
    <path id="Path_331" data-name="Path 331" d="M252.623,273.84A22.108,22.108,0,0,0,238.417,279a2.6,2.6,0,0,0-.152,3.786h0a2.624,2.624,0,0,0,3.568.153,16.937,16.937,0,0,1,21.578,0,2.622,2.622,0,0,0,3.567-.154,2.6,2.6,0,0,0-.153-3.786,22.118,22.118,0,0,0-14.2-5.156Z" transform="translate(-120.784 -173.307)" fill="#c5a47e"/>
    <path id="Path_332" data-name="Path 332" d="M195.143,178.61a34.892,34.892,0,0,0-23.13,8.747,2.623,2.623,0,0,0-.149,3.791,2.58,2.58,0,0,0,3.557.157,29.746,29.746,0,0,1,39.437-.005,2.581,2.581,0,0,0,3.558-.158,2.623,2.623,0,0,0-.15-3.791,34.885,34.885,0,0,0-23.123-8.741Z" transform="translate(-63.303 -90.861)" fill="#c5a47e"/>
    <path id="Path_333" data-name="Path 333" d="M164.782,86.376a49.03,49.03,0,0,0-65.894.01,2.629,2.629,0,0,0-.148,3.784,2.586,2.586,0,0,0,3.59.136,43.816,43.816,0,0,1,59.009-.008,2.587,2.587,0,0,0,3.591-.137,2.631,2.631,0,0,0-.149-3.784Z" transform="translate(0)" fill="#c5a47e"/>
  </g>
</svg>
