 <svg xmlns="http://www.w3.org/2000/svg" width="60.47" height="55.465" viewBox="0 0 62.47 61.465">
            <g id="noun-information-desk-2724335" transform="translate(-87.014 -21.232)">
              <path id="Path_322" data-name="Path 322"
                d="M148.029,160.74H130.207v-3.051a7.307,7.307,0,0,0-7.3-7.3h-9.51a7.307,7.307,0,0,0-7.3,7.3v3.051H88.469a1.457,1.457,0,0,0-1.455,1.455v6.942a1.454,1.454,0,0,0,1.455,1.455h3.982L94.817,195.2a1.457,1.457,0,0,0,1.451,1.313h43.964a1.46,1.46,0,0,0,1.451-1.313l2.365-24.613h3.982a1.454,1.454,0,0,0,1.455-1.455v-6.942A1.457,1.457,0,0,0,148.029,160.74ZM109,157.689a4.394,4.394,0,0,1,4.394-4.386H122.9a4.394,4.394,0,0,1,4.394,4.386v3.051H109Zm29.908,35.919H97.589L95.373,170.59h45.751Zm7.665-25.926H89.923V163.65h56.65Z"
                transform="translate(0 -113.821)" fill="#c5a47e" />
              <path id="Path_323" data-name="Path 323"
                d="M336.133,352.39a1.711,1.711,0,0,0,.15.286,1.767,1.767,0,0,0,.208.254,1.671,1.671,0,0,0,1.176.486,1.735,1.735,0,0,0,.324-.029,1.978,1.978,0,0,0,.312-.1,1.9,1.9,0,0,0,.287-.154,1.749,1.749,0,0,0,.253-.208,1.676,1.676,0,0,0,.486-1.177,1.705,1.705,0,0,0-.033-.324,1.759,1.759,0,0,0-.245-.6,1.964,1.964,0,0,0-.208-.254,1.667,1.667,0,0,0-.253-.2,1.629,1.629,0,0,0-.287-.154,1.555,1.555,0,0,0-.312-.1,1.688,1.688,0,0,0-1.5.453,1.933,1.933,0,0,0-.208.254,1.828,1.828,0,0,0-.15.286,1.779,1.779,0,0,0-.1.312,1.612,1.612,0,0,0,0,.653A1.571,1.571,0,0,0,336.133,352.39Z"
                transform="translate(-219.418 -289.803)" fill="#c5a47e" />
              <path id="Path_324" data-name="Path 324"
                d="M315.855,404.738a1.455,1.455,0,1,0,0,2.91H321.4a1.455,1.455,0,1,0,0-2.91h-1.318v-4.479H321.4a1.455,1.455,0,0,0,0-2.91h-5.546a1.455,1.455,0,1,0,0,2.91h1.318v4.479Z"
                transform="translate(-200.38 -331.446)" fill="#c5a47e" />
              <path id="Path_325" data-name="Path 325"
                d="M292.753,35.847a7.308,7.308,0,1,0-7.313-7.307A7.319,7.319,0,0,0,292.753,35.847Zm0-11.706a4.4,4.4,0,1,1-4.4,4.4A4.405,4.405,0,0,1,292.753,24.142Z"
                transform="translate(-174.859)" fill="#c5a47e" />
            </g>
          </svg>