
<svg xmlns="http://www.w3.org/2000/svg" width="67.888" height="54.93" viewBox="0 0 67.888 54.93">
  <path id="noun-baby-carriage-5667239" d="M71.882,15.693a1.615,1.615,0,0,0-1.615-1.163H54.12a1.615,1.615,0,0,0-1.615,1.615V22.6h-8.3a6.46,6.46,0,0,0-4.619-4.619V1.612A1.615,1.615,0,0,0,37.972,0H28.284a24.045,24.045,0,0,0-8.445,1.615h-.178a24.353,24.353,0,0,0-12.014,10A24.077,24.077,0,0,0,4.062,24.219a1.114,1.114,0,0,0,0,.226.544.544,0,0,0,0,.162l3.23,12.919a1.614,1.614,0,0,0,1.615,1.227H27.621l-6.54,6.54h0a4.844,4.844,0,1,0,5.3,6.378H36.648a4.844,4.844,0,1,0,5.3-6.378l-6.54-6.54H54.119a1.614,1.614,0,0,0,1.615-1.227L58.8,25.237,71.17,17.518h0a1.615,1.615,0,0,0,.71-1.825ZM36.648,48.44H26.378A4.977,4.977,0,0,0,24.763,46.2l6.782-6.782L38.327,46.2h0a4.974,4.974,0,0,0-1.68,2.245ZM21.824,51.67a1.615,1.615,0,1,1,1.142-.473A1.614,1.614,0,0,1,21.824,51.67Zm19.378,0a1.615,1.615,0,1,1,1.142-.473A1.615,1.615,0,0,1,41.2,51.67Zm0-27.451a3.23,3.23,0,0,1-6.459,0,3.005,3.005,0,0,1,.242-1.211A3.229,3.229,0,0,1,41.2,24.219ZM36.358,3.226V17.985h0a7.114,7.114,0,0,0-1.163.42L23.036,3.873a20.868,20.868,0,0,1,5.248-.646ZM19.773,5.051,32.5,20.214,11.506,11.575h0a20.993,20.993,0,0,1,8.267-6.523ZM9.794,14.336,29.9,22.6H7.291a20.846,20.846,0,0,1,2.5-8.268ZM52.86,35.521H10.165L7.743,25.833h24a6.459,6.459,0,0,0,12.466,0H55.282ZM56.88,22.6H55.734V17.758h8.9Z" transform="translate(-4.056 0.002)" fill="#c5a47e"/>
</svg>
